<mxfile host="app.diagrams.net" modified="2022-09-19T07:40:30.332Z" agent="5.0 (Windows NT 10.0; Win64; x64) AppleWebKit/537.36 (KHTML, like Gecko) Chrome/105.0.0.0 Safari/537.36" etag="QwRd-6lKR2j0g3KpGdXQ" version="20.3.2" type="github">
  <diagram id="ZKAz6yzNfmy_C0lKUpDP" name="Page-1">
    <mxGraphModel dx="2333" dy="857" grid="1" gridSize="10" guides="1" tooltips="1" connect="1" arrows="1" fold="1" page="1" pageScale="1" pageWidth="850" pageHeight="1100" math="0" shadow="0">
      <root>
        <mxCell id="0" />
        <mxCell id="1" parent="0" />
        <mxCell id="IHvJuYF5Bxmepv5bioum-17" style="edgeStyle=orthogonalEdgeStyle;rounded=0;orthogonalLoop=1;jettySize=auto;html=1;exitX=0.5;exitY=0;exitDx=0;exitDy=0;entryX=0.5;entryY=0;entryDx=0;entryDy=0;endArrow=none;endFill=0;" edge="1" parent="1" source="IHvJuYF5Bxmepv5bioum-1" target="IHvJuYF5Bxmepv5bioum-9">
          <mxGeometry relative="1" as="geometry">
            <Array as="points">
              <mxPoint x="150" y="160" />
              <mxPoint x="710" y="160" />
            </Array>
          </mxGeometry>
        </mxCell>
        <mxCell id="IHvJuYF5Bxmepv5bioum-18" value="Assigned" style="edgeLabel;html=1;align=center;verticalAlign=middle;resizable=0;points=[];" vertex="1" connectable="0" parent="IHvJuYF5Bxmepv5bioum-17">
          <mxGeometry x="-0.0417" y="-2" relative="1" as="geometry">
            <mxPoint as="offset" />
          </mxGeometry>
        </mxCell>
        <mxCell id="IHvJuYF5Bxmepv5bioum-19" value="1..5" style="edgeLabel;html=1;align=center;verticalAlign=middle;resizable=0;points=[];" vertex="1" connectable="0" parent="IHvJuYF5Bxmepv5bioum-17">
          <mxGeometry x="-0.9618" y="1" relative="1" as="geometry">
            <mxPoint x="11" y="4" as="offset" />
          </mxGeometry>
        </mxCell>
        <mxCell id="IHvJuYF5Bxmepv5bioum-20" value="1..*" style="edgeLabel;html=1;align=center;verticalAlign=middle;resizable=0;points=[];" vertex="1" connectable="0" parent="IHvJuYF5Bxmepv5bioum-17">
          <mxGeometry x="0.9202" y="2" relative="1" as="geometry">
            <mxPoint x="8" y="22" as="offset" />
          </mxGeometry>
        </mxCell>
        <mxCell id="IHvJuYF5Bxmepv5bioum-1" value="ProjectÂ " style="swimlane;fontStyle=0;childLayout=stackLayout;horizontal=1;startSize=26;fillColor=none;horizontalStack=0;resizeParent=1;resizeParentMax=0;resizeLast=0;collapsible=1;marginBottom=0;" vertex="1" parent="1">
          <mxGeometry x="80" y="260" width="140" height="104" as="geometry" />
        </mxCell>
        <mxCell id="IHvJuYF5Bxmepv5bioum-2" value="id" style="text;strokeColor=none;fillColor=none;align=left;verticalAlign=top;spacingLeft=4;spacingRight=4;overflow=hidden;rotatable=0;points=[[0,0.5],[1,0.5]];portConstraint=eastwest;" vertex="1" parent="IHvJuYF5Bxmepv5bioum-1">
          <mxGeometry y="26" width="140" height="26" as="geometry" />
        </mxCell>
        <mxCell id="IHvJuYF5Bxmepv5bioum-3" value="title" style="text;strokeColor=none;fillColor=none;align=left;verticalAlign=top;spacingLeft=4;spacingRight=4;overflow=hidden;rotatable=0;points=[[0,0.5],[1,0.5]];portConstraint=eastwest;" vertex="1" parent="IHvJuYF5Bxmepv5bioum-1">
          <mxGeometry y="52" width="140" height="26" as="geometry" />
        </mxCell>
        <mxCell id="IHvJuYF5Bxmepv5bioum-4" value="desc" style="text;strokeColor=none;fillColor=none;align=left;verticalAlign=top;spacingLeft=4;spacingRight=4;overflow=hidden;rotatable=0;points=[[0,0.5],[1,0.5]];portConstraint=eastwest;" vertex="1" parent="IHvJuYF5Bxmepv5bioum-1">
          <mxGeometry y="78" width="140" height="26" as="geometry" />
        </mxCell>
        <mxCell id="IHvJuYF5Bxmepv5bioum-5" value="Task" style="swimlane;fontStyle=0;childLayout=stackLayout;horizontal=1;startSize=26;fillColor=none;horizontalStack=0;resizeParent=1;resizeParentMax=0;resizeLast=0;collapsible=1;marginBottom=0;" vertex="1" parent="1">
          <mxGeometry x="360" y="260" width="140" height="130" as="geometry">
            <mxRectangle x="360" y="260" width="70" height="30" as="alternateBounds" />
          </mxGeometry>
        </mxCell>
        <mxCell id="IHvJuYF5Bxmepv5bioum-6" value="id" style="text;strokeColor=none;fillColor=none;align=left;verticalAlign=top;spacingLeft=4;spacingRight=4;overflow=hidden;rotatable=0;points=[[0,0.5],[1,0.5]];portConstraint=eastwest;" vertex="1" parent="IHvJuYF5Bxmepv5bioum-5">
          <mxGeometry y="26" width="140" height="26" as="geometry" />
        </mxCell>
        <mxCell id="IHvJuYF5Bxmepv5bioum-7" value="title" style="text;strokeColor=none;fillColor=none;align=left;verticalAlign=top;spacingLeft=4;spacingRight=4;overflow=hidden;rotatable=0;points=[[0,0.5],[1,0.5]];portConstraint=eastwest;" vertex="1" parent="IHvJuYF5Bxmepv5bioum-5">
          <mxGeometry y="52" width="140" height="26" as="geometry" />
        </mxCell>
        <mxCell id="IHvJuYF5Bxmepv5bioum-8" value="deadline" style="text;strokeColor=none;fillColor=none;align=left;verticalAlign=top;spacingLeft=4;spacingRight=4;overflow=hidden;rotatable=0;points=[[0,0.5],[1,0.5]];portConstraint=eastwest;" vertex="1" parent="IHvJuYF5Bxmepv5bioum-5">
          <mxGeometry y="78" width="140" height="26" as="geometry" />
        </mxCell>
        <mxCell id="IHvJuYF5Bxmepv5bioum-21" value="type" style="text;strokeColor=none;fillColor=none;align=left;verticalAlign=top;spacingLeft=4;spacingRight=4;overflow=hidden;rotatable=0;points=[[0,0.5],[1,0.5]];portConstraint=eastwest;" vertex="1" parent="IHvJuYF5Bxmepv5bioum-5">
          <mxGeometry y="104" width="140" height="26" as="geometry" />
        </mxCell>
        <object label="Employee" type="" id="IHvJuYF5Bxmepv5bioum-9">
          <mxCell style="swimlane;fontStyle=0;childLayout=stackLayout;horizontal=1;startSize=26;fillColor=none;horizontalStack=0;resizeParent=1;resizeParentMax=0;resizeLast=0;collapsible=1;marginBottom=0;" vertex="1" parent="1">
            <mxGeometry x="640" y="260" width="140" height="156" as="geometry" />
          </mxCell>
        </object>
        <mxCell id="IHvJuYF5Bxmepv5bioum-10" value="id" style="text;strokeColor=none;fillColor=none;align=left;verticalAlign=top;spacingLeft=4;spacingRight=4;overflow=hidden;rotatable=0;points=[[0,0.5],[1,0.5]];portConstraint=eastwest;" vertex="1" parent="IHvJuYF5Bxmepv5bioum-9">
          <mxGeometry y="26" width="140" height="26" as="geometry" />
        </mxCell>
        <mxCell id="IHvJuYF5Bxmepv5bioum-11" value="name" style="text;strokeColor=none;fillColor=none;align=left;verticalAlign=top;spacingLeft=4;spacingRight=4;overflow=hidden;rotatable=0;points=[[0,0.5],[1,0.5]];portConstraint=eastwest;" vertex="1" parent="IHvJuYF5Bxmepv5bioum-9">
          <mxGeometry y="52" width="140" height="26" as="geometry" />
        </mxCell>
        <mxCell id="IHvJuYF5Bxmepv5bioum-14" value="type" style="text;strokeColor=none;fillColor=none;align=left;verticalAlign=top;spacingLeft=4;spacingRight=4;overflow=hidden;rotatable=0;points=[[0,0.5],[1,0.5]];portConstraint=eastwest;" vertex="1" parent="IHvJuYF5Bxmepv5bioum-9">
          <mxGeometry y="78" width="140" height="26" as="geometry" />
        </mxCell>
        <mxCell id="IHvJuYF5Bxmepv5bioum-12" value="email&#xa;&#xa;type" style="text;strokeColor=none;fillColor=none;align=left;verticalAlign=top;spacingLeft=4;spacingRight=4;overflow=hidden;rotatable=0;points=[[0,0.5],[1,0.5]];portConstraint=eastwest;" vertex="1" parent="IHvJuYF5Bxmepv5bioum-9">
          <mxGeometry y="104" width="140" height="26" as="geometry" />
        </mxCell>
        <mxCell id="IHvJuYF5Bxmepv5bioum-30" style="edgeStyle=orthogonalEdgeStyle;rounded=0;orthogonalLoop=1;jettySize=auto;html=1;exitX=0.5;exitY=0;exitDx=0;exitDy=0;entryX=1;entryY=0.5;entryDx=0;entryDy=0;endArrow=none;endFill=0;" edge="1" parent="IHvJuYF5Bxmepv5bioum-9" source="IHvJuYF5Bxmepv5bioum-9" target="IHvJuYF5Bxmepv5bioum-14">
          <mxGeometry relative="1" as="geometry">
            <Array as="points">
              <mxPoint x="50" />
              <mxPoint x="50" y="-20" />
              <mxPoint x="160" y="-20" />
              <mxPoint x="160" y="130" />
              <mxPoint x="140" y="130" />
            </Array>
          </mxGeometry>
        </mxCell>
        <mxCell id="IHvJuYF5Bxmepv5bioum-94" value="role" style="text;strokeColor=none;fillColor=none;align=left;verticalAlign=top;spacingLeft=4;spacingRight=4;overflow=hidden;rotatable=0;points=[[0,0.5],[1,0.5]];portConstraint=eastwest;" vertex="1" parent="IHvJuYF5Bxmepv5bioum-9">
          <mxGeometry y="130" width="140" height="26" as="geometry" />
        </mxCell>
        <mxCell id="IHvJuYF5Bxmepv5bioum-22" style="edgeStyle=orthogonalEdgeStyle;rounded=0;orthogonalLoop=1;jettySize=auto;html=1;exitX=1;exitY=0.5;exitDx=0;exitDy=0;entryX=0;entryY=0.5;entryDx=0;entryDy=0;endArrow=none;endFill=0;" edge="1" parent="1" source="IHvJuYF5Bxmepv5bioum-3" target="IHvJuYF5Bxmepv5bioum-7">
          <mxGeometry relative="1" as="geometry" />
        </mxCell>
        <mxCell id="IHvJuYF5Bxmepv5bioum-24" value="Has" style="edgeLabel;html=1;align=center;verticalAlign=middle;resizable=0;points=[];" vertex="1" connectable="0" parent="IHvJuYF5Bxmepv5bioum-22">
          <mxGeometry x="-0.131" y="-1" relative="1" as="geometry">
            <mxPoint as="offset" />
          </mxGeometry>
        </mxCell>
        <mxCell id="IHvJuYF5Bxmepv5bioum-26" value="1..1" style="edgeLabel;html=1;align=center;verticalAlign=middle;resizable=0;points=[];" vertex="1" connectable="0" parent="IHvJuYF5Bxmepv5bioum-22">
          <mxGeometry x="-0.8452" y="-3" relative="1" as="geometry">
            <mxPoint y="-13" as="offset" />
          </mxGeometry>
        </mxCell>
        <mxCell id="IHvJuYF5Bxmepv5bioum-27" value="0..*" style="edgeLabel;html=1;align=center;verticalAlign=middle;resizable=0;points=[];" vertex="1" connectable="0" parent="IHvJuYF5Bxmepv5bioum-22">
          <mxGeometry x="0.8214" y="-2" relative="1" as="geometry">
            <mxPoint y="-12" as="offset" />
          </mxGeometry>
        </mxCell>
        <mxCell id="IHvJuYF5Bxmepv5bioum-23" style="edgeStyle=orthogonalEdgeStyle;rounded=0;orthogonalLoop=1;jettySize=auto;html=1;exitX=1;exitY=0.5;exitDx=0;exitDy=0;endArrow=none;endFill=0;" edge="1" parent="1" source="IHvJuYF5Bxmepv5bioum-7" target="IHvJuYF5Bxmepv5bioum-11">
          <mxGeometry relative="1" as="geometry" />
        </mxCell>
        <mxCell id="IHvJuYF5Bxmepv5bioum-25" value="Assigned" style="edgeLabel;html=1;align=center;verticalAlign=middle;resizable=0;points=[];" vertex="1" connectable="0" parent="IHvJuYF5Bxmepv5bioum-23">
          <mxGeometry x="-0.131" y="2" relative="1" as="geometry">
            <mxPoint as="offset" />
          </mxGeometry>
        </mxCell>
        <mxCell id="IHvJuYF5Bxmepv5bioum-29" value="0..1" style="edgeLabel;html=1;align=center;verticalAlign=middle;resizable=0;points=[];" vertex="1" connectable="0" parent="IHvJuYF5Bxmepv5bioum-23">
          <mxGeometry x="0.8452" y="1" relative="1" as="geometry">
            <mxPoint y="-8" as="offset" />
          </mxGeometry>
        </mxCell>
        <mxCell id="IHvJuYF5Bxmepv5bioum-28" value="0..*" style="edgeLabel;html=1;align=center;verticalAlign=middle;resizable=0;points=[];" vertex="1" connectable="0" parent="1">
          <mxGeometry x="357.5" y="324.9999999999999" as="geometry">
            <mxPoint x="152" y="-9" as="offset" />
          </mxGeometry>
        </mxCell>
        <mxCell id="IHvJuYF5Bxmepv5bioum-31" style="edgeStyle=orthogonalEdgeStyle;rounded=0;orthogonalLoop=1;jettySize=auto;html=1;exitX=0.5;exitY=0;exitDx=0;exitDy=0;entryX=0.5;entryY=0;entryDx=0;entryDy=0;endArrow=none;endFill=0;" edge="1" parent="1" source="IHvJuYF5Bxmepv5bioum-35" target="IHvJuYF5Bxmepv5bioum-44">
          <mxGeometry relative="1" as="geometry">
            <Array as="points">
              <mxPoint x="40" y="700" />
              <mxPoint x="750" y="700" />
              <mxPoint x="750" y="760" />
            </Array>
          </mxGeometry>
        </mxCell>
        <mxCell id="IHvJuYF5Bxmepv5bioum-32" value="Assigned" style="edgeLabel;html=1;align=center;verticalAlign=middle;resizable=0;points=[];" vertex="1" connectable="0" parent="IHvJuYF5Bxmepv5bioum-31">
          <mxGeometry x="-0.0417" y="-2" relative="1" as="geometry">
            <mxPoint as="offset" />
          </mxGeometry>
        </mxCell>
        <mxCell id="IHvJuYF5Bxmepv5bioum-33" value="1..5" style="edgeLabel;html=1;align=center;verticalAlign=middle;resizable=0;points=[];" vertex="1" connectable="0" parent="IHvJuYF5Bxmepv5bioum-31">
          <mxGeometry x="-0.9618" y="1" relative="1" as="geometry">
            <mxPoint x="11" y="4" as="offset" />
          </mxGeometry>
        </mxCell>
        <mxCell id="IHvJuYF5Bxmepv5bioum-34" value="1..*" style="edgeLabel;html=1;align=center;verticalAlign=middle;resizable=0;points=[];" vertex="1" connectable="0" parent="IHvJuYF5Bxmepv5bioum-31">
          <mxGeometry x="0.9202" y="2" relative="1" as="geometry">
            <mxPoint x="8" y="22" as="offset" />
          </mxGeometry>
        </mxCell>
        <mxCell id="IHvJuYF5Bxmepv5bioum-35" value="ProjectÂ " style="swimlane;fontStyle=0;childLayout=stackLayout;horizontal=1;startSize=26;fillColor=none;horizontalStack=0;resizeParent=1;resizeParentMax=0;resizeLast=0;collapsible=1;marginBottom=0;" vertex="1" parent="1">
          <mxGeometry x="-30" y="760" width="140" height="104" as="geometry" />
        </mxCell>
        <mxCell id="IHvJuYF5Bxmepv5bioum-36" value="id" style="text;strokeColor=none;fillColor=none;align=left;verticalAlign=top;spacingLeft=4;spacingRight=4;overflow=hidden;rotatable=0;points=[[0,0.5],[1,0.5]];portConstraint=eastwest;" vertex="1" parent="IHvJuYF5Bxmepv5bioum-35">
          <mxGeometry y="26" width="140" height="26" as="geometry" />
        </mxCell>
        <mxCell id="IHvJuYF5Bxmepv5bioum-37" value="title" style="text;strokeColor=none;fillColor=none;align=left;verticalAlign=top;spacingLeft=4;spacingRight=4;overflow=hidden;rotatable=0;points=[[0,0.5],[1,0.5]];portConstraint=eastwest;" vertex="1" parent="IHvJuYF5Bxmepv5bioum-35">
          <mxGeometry y="52" width="140" height="26" as="geometry" />
        </mxCell>
        <mxCell id="IHvJuYF5Bxmepv5bioum-38" value="desc" style="text;strokeColor=none;fillColor=none;align=left;verticalAlign=top;spacingLeft=4;spacingRight=4;overflow=hidden;rotatable=0;points=[[0,0.5],[1,0.5]];portConstraint=eastwest;" vertex="1" parent="IHvJuYF5Bxmepv5bioum-35">
          <mxGeometry y="78" width="140" height="26" as="geometry" />
        </mxCell>
        <mxCell id="IHvJuYF5Bxmepv5bioum-39" value="Task" style="swimlane;fontStyle=0;childLayout=stackLayout;horizontal=1;startSize=26;fillColor=none;horizontalStack=0;resizeParent=1;resizeParentMax=0;resizeLast=0;collapsible=1;marginBottom=0;" vertex="1" parent="1">
          <mxGeometry x="313.33" y="760" width="140" height="104" as="geometry">
            <mxRectangle x="360" y="260" width="70" height="30" as="alternateBounds" />
          </mxGeometry>
        </mxCell>
        <mxCell id="IHvJuYF5Bxmepv5bioum-40" value="id" style="text;strokeColor=none;fillColor=none;align=left;verticalAlign=top;spacingLeft=4;spacingRight=4;overflow=hidden;rotatable=0;points=[[0,0.5],[1,0.5]];portConstraint=eastwest;" vertex="1" parent="IHvJuYF5Bxmepv5bioum-39">
          <mxGeometry y="26" width="140" height="26" as="geometry" />
        </mxCell>
        <mxCell id="IHvJuYF5Bxmepv5bioum-41" value="title" style="text;strokeColor=none;fillColor=none;align=left;verticalAlign=top;spacingLeft=4;spacingRight=4;overflow=hidden;rotatable=0;points=[[0,0.5],[1,0.5]];portConstraint=eastwest;" vertex="1" parent="IHvJuYF5Bxmepv5bioum-39">
          <mxGeometry y="52" width="140" height="26" as="geometry" />
        </mxCell>
        <mxCell id="IHvJuYF5Bxmepv5bioum-42" value="deadline" style="text;strokeColor=none;fillColor=none;align=left;verticalAlign=top;spacingLeft=4;spacingRight=4;overflow=hidden;rotatable=0;points=[[0,0.5],[1,0.5]];portConstraint=eastwest;" vertex="1" parent="IHvJuYF5Bxmepv5bioum-39">
          <mxGeometry y="78" width="140" height="26" as="geometry" />
        </mxCell>
        <object label="Employee" type="" id="IHvJuYF5Bxmepv5bioum-44">
          <mxCell style="swimlane;fontStyle=0;childLayout=stackLayout;horizontal=1;startSize=26;fillColor=none;horizontalStack=0;resizeParent=1;resizeParentMax=0;resizeLast=0;collapsible=1;marginBottom=0;" vertex="1" parent="1">
            <mxGeometry x="719.17" y="760" width="140" height="130" as="geometry" />
          </mxCell>
        </object>
        <mxCell id="IHvJuYF5Bxmepv5bioum-45" value="id" style="text;strokeColor=none;fillColor=none;align=left;verticalAlign=top;spacingLeft=4;spacingRight=4;overflow=hidden;rotatable=0;points=[[0,0.5],[1,0.5]];portConstraint=eastwest;" vertex="1" parent="IHvJuYF5Bxmepv5bioum-44">
          <mxGeometry y="26" width="140" height="26" as="geometry" />
        </mxCell>
        <mxCell id="IHvJuYF5Bxmepv5bioum-46" value="name" style="text;strokeColor=none;fillColor=none;align=left;verticalAlign=top;spacingLeft=4;spacingRight=4;overflow=hidden;rotatable=0;points=[[0,0.5],[1,0.5]];portConstraint=eastwest;" vertex="1" parent="IHvJuYF5Bxmepv5bioum-44">
          <mxGeometry y="52" width="140" height="26" as="geometry" />
        </mxCell>
        <mxCell id="IHvJuYF5Bxmepv5bioum-47" value="type" style="text;strokeColor=none;fillColor=none;align=left;verticalAlign=top;spacingLeft=4;spacingRight=4;overflow=hidden;rotatable=0;points=[[0,0.5],[1,0.5]];portConstraint=eastwest;" vertex="1" parent="IHvJuYF5Bxmepv5bioum-44">
          <mxGeometry y="78" width="140" height="26" as="geometry" />
        </mxCell>
        <mxCell id="IHvJuYF5Bxmepv5bioum-48" value="email&#xa;&#xa;type" style="text;strokeColor=none;fillColor=none;align=left;verticalAlign=top;spacingLeft=4;spacingRight=4;overflow=hidden;rotatable=0;points=[[0,0.5],[1,0.5]];portConstraint=eastwest;" vertex="1" parent="IHvJuYF5Bxmepv5bioum-44">
          <mxGeometry y="104" width="140" height="26" as="geometry" />
        </mxCell>
        <mxCell id="IHvJuYF5Bxmepv5bioum-51" style="edgeStyle=orthogonalEdgeStyle;rounded=0;orthogonalLoop=1;jettySize=auto;html=1;exitX=1;exitY=0.5;exitDx=0;exitDy=0;entryX=0;entryY=0.5;entryDx=0;entryDy=0;endArrow=none;endFill=0;" edge="1" parent="1" source="IHvJuYF5Bxmepv5bioum-37" target="IHvJuYF5Bxmepv5bioum-41">
          <mxGeometry relative="1" as="geometry" />
        </mxCell>
        <mxCell id="IHvJuYF5Bxmepv5bioum-52" value="Has" style="edgeLabel;html=1;align=center;verticalAlign=middle;resizable=0;points=[];" vertex="1" connectable="0" parent="IHvJuYF5Bxmepv5bioum-51">
          <mxGeometry x="-0.131" y="-1" relative="1" as="geometry">
            <mxPoint as="offset" />
          </mxGeometry>
        </mxCell>
        <mxCell id="IHvJuYF5Bxmepv5bioum-53" value="1..1" style="edgeLabel;html=1;align=center;verticalAlign=middle;resizable=0;points=[];" vertex="1" connectable="0" parent="IHvJuYF5Bxmepv5bioum-51">
          <mxGeometry x="-0.8452" y="-3" relative="1" as="geometry">
            <mxPoint y="-13" as="offset" />
          </mxGeometry>
        </mxCell>
        <mxCell id="IHvJuYF5Bxmepv5bioum-54" value="0..*" style="edgeLabel;html=1;align=center;verticalAlign=middle;resizable=0;points=[];" vertex="1" connectable="0" parent="IHvJuYF5Bxmepv5bioum-51">
          <mxGeometry x="0.8214" y="-2" relative="1" as="geometry">
            <mxPoint y="-12" as="offset" />
          </mxGeometry>
        </mxCell>
        <mxCell id="IHvJuYF5Bxmepv5bioum-55" style="edgeStyle=orthogonalEdgeStyle;rounded=0;orthogonalLoop=1;jettySize=auto;html=1;exitX=1;exitY=0.5;exitDx=0;exitDy=0;endArrow=none;endFill=0;" edge="1" parent="1" source="IHvJuYF5Bxmepv5bioum-41" target="IHvJuYF5Bxmepv5bioum-46">
          <mxGeometry relative="1" as="geometry" />
        </mxCell>
        <mxCell id="IHvJuYF5Bxmepv5bioum-56" value="Assigned" style="edgeLabel;html=1;align=center;verticalAlign=middle;resizable=0;points=[];" vertex="1" connectable="0" parent="IHvJuYF5Bxmepv5bioum-55">
          <mxGeometry x="-0.131" y="2" relative="1" as="geometry">
            <mxPoint as="offset" />
          </mxGeometry>
        </mxCell>
        <mxCell id="IHvJuYF5Bxmepv5bioum-57" value="0..1" style="edgeLabel;html=1;align=center;verticalAlign=middle;resizable=0;points=[];" vertex="1" connectable="0" parent="IHvJuYF5Bxmepv5bioum-55">
          <mxGeometry x="0.8452" y="1" relative="1" as="geometry">
            <mxPoint y="-8" as="offset" />
          </mxGeometry>
        </mxCell>
        <mxCell id="IHvJuYF5Bxmepv5bioum-58" value="0..*" style="edgeLabel;html=1;align=center;verticalAlign=middle;resizable=0;points=[];" vertex="1" connectable="0" parent="1">
          <mxGeometry x="310.83" y="824.9999999999999" as="geometry">
            <mxPoint x="152" y="-9" as="offset" />
          </mxGeometry>
        </mxCell>
        <mxCell id="IHvJuYF5Bxmepv5bioum-79" style="edgeStyle=orthogonalEdgeStyle;rounded=0;orthogonalLoop=1;jettySize=auto;html=1;exitX=0.5;exitY=0;exitDx=0;exitDy=0;endArrow=none;endFill=0;" edge="1" parent="1" source="IHvJuYF5Bxmepv5bioum-59">
          <mxGeometry relative="1" as="geometry">
            <mxPoint x="790" y="980" as="targetPoint" />
            <Array as="points">
              <mxPoint x="640" y="980" />
            </Array>
          </mxGeometry>
        </mxCell>
        <mxCell id="IHvJuYF5Bxmepv5bioum-59" value="Tester" style="swimlane;fontStyle=0;childLayout=stackLayout;horizontal=1;startSize=26;fillColor=none;horizontalStack=0;resizeParent=1;resizeParentMax=0;resizeLast=0;collapsible=1;marginBottom=0;" vertex="1" parent="1">
          <mxGeometry x="570" y="1020" width="140" height="52" as="geometry" />
        </mxCell>
        <mxCell id="IHvJuYF5Bxmepv5bioum-75" style="edgeStyle=none;rounded=0;orthogonalLoop=1;jettySize=auto;html=1;exitX=0.5;exitY=0;exitDx=0;exitDy=0;endArrow=block;endFill=0;entryX=0.505;entryY=1.074;entryDx=0;entryDy=0;entryPerimeter=0;" edge="1" parent="1" source="IHvJuYF5Bxmepv5bioum-63" target="IHvJuYF5Bxmepv5bioum-48">
          <mxGeometry relative="1" as="geometry">
            <mxPoint x="789.1700000000001" y="916.2600000000002" as="targetPoint" />
          </mxGeometry>
        </mxCell>
        <mxCell id="IHvJuYF5Bxmepv5bioum-63" value="Developer" style="swimlane;fontStyle=0;childLayout=stackLayout;horizontal=1;startSize=26;fillColor=none;horizontalStack=0;resizeParent=1;resizeParentMax=0;resizeLast=0;collapsible=1;marginBottom=0;" vertex="1" parent="1">
          <mxGeometry x="720" y="1020" width="140" height="52" as="geometry" />
        </mxCell>
        <mxCell id="IHvJuYF5Bxmepv5bioum-80" style="edgeStyle=orthogonalEdgeStyle;rounded=0;orthogonalLoop=1;jettySize=auto;html=1;exitX=0.5;exitY=0;exitDx=0;exitDy=0;endArrow=none;endFill=0;" edge="1" parent="1" source="IHvJuYF5Bxmepv5bioum-67">
          <mxGeometry relative="1" as="geometry">
            <mxPoint x="790" y="980" as="targetPoint" />
            <Array as="points">
              <mxPoint x="960" y="980" />
            </Array>
          </mxGeometry>
        </mxCell>
        <mxCell id="IHvJuYF5Bxmepv5bioum-95" style="edgeStyle=orthogonalEdgeStyle;rounded=0;orthogonalLoop=1;jettySize=auto;html=1;exitX=0.5;exitY=1;exitDx=0;exitDy=0;endArrow=none;endFill=0;entryX=0;entryY=0.5;entryDx=0;entryDy=0;" edge="1" parent="1" source="IHvJuYF5Bxmepv5bioum-67" target="IHvJuYF5Bxmepv5bioum-42">
          <mxGeometry relative="1" as="geometry">
            <mxPoint x="150" y="860" as="targetPoint" />
            <Array as="points">
              <mxPoint x="960" y="1210" />
              <mxPoint x="220" y="1210" />
              <mxPoint x="220" y="851" />
            </Array>
          </mxGeometry>
        </mxCell>
        <mxCell id="IHvJuYF5Bxmepv5bioum-96" value="Assigned" style="edgeLabel;html=1;align=center;verticalAlign=middle;resizable=0;points=[];" vertex="1" connectable="0" parent="IHvJuYF5Bxmepv5bioum-95">
          <mxGeometry x="-0.2496" y="1" relative="1" as="geometry">
            <mxPoint as="offset" />
          </mxGeometry>
        </mxCell>
        <mxCell id="IHvJuYF5Bxmepv5bioum-102" style="edgeStyle=orthogonalEdgeStyle;rounded=0;orthogonalLoop=1;jettySize=auto;html=1;exitX=0.75;exitY=0;exitDx=0;exitDy=0;entryX=0.301;entryY=0.002;entryDx=0;entryDy=0;entryPerimeter=0;endArrow=none;endFill=0;" edge="1" parent="1" source="IHvJuYF5Bxmepv5bioum-67" target="IHvJuYF5Bxmepv5bioum-35">
          <mxGeometry relative="1" as="geometry">
            <Array as="points">
              <mxPoint x="995" y="680" />
              <mxPoint x="12" y="680" />
            </Array>
          </mxGeometry>
        </mxCell>
        <mxCell id="IHvJuYF5Bxmepv5bioum-130" style="edgeStyle=orthogonalEdgeStyle;rounded=0;orthogonalLoop=1;jettySize=auto;html=1;exitX=1;exitY=1;exitDx=0;exitDy=0;endArrow=none;endFill=0;entryX=0.428;entryY=1.011;entryDx=0;entryDy=0;entryPerimeter=0;" edge="1" parent="1" source="IHvJuYF5Bxmepv5bioum-67" target="IHvJuYF5Bxmepv5bioum-127">
          <mxGeometry relative="1" as="geometry">
            <mxPoint x="419.5238095238095" y="1710" as="targetPoint" />
            <Array as="points">
              <mxPoint x="1020" y="1072" />
              <mxPoint x="1020" y="1310" />
              <mxPoint x="37" y="1310" />
              <mxPoint x="37" y="1064" />
            </Array>
          </mxGeometry>
        </mxCell>
        <mxCell id="IHvJuYF5Bxmepv5bioum-138" value="Participates" style="edgeLabel;html=1;align=center;verticalAlign=middle;resizable=0;points=[];" vertex="1" connectable="0" parent="IHvJuYF5Bxmepv5bioum-130">
          <mxGeometry x="-0.0233" y="-3" relative="1" as="geometry">
            <mxPoint as="offset" />
          </mxGeometry>
        </mxCell>
        <mxCell id="IHvJuYF5Bxmepv5bioum-67" value="ProjectManager" style="swimlane;fontStyle=0;childLayout=stackLayout;horizontal=1;startSize=26;fillColor=none;horizontalStack=0;resizeParent=1;resizeParentMax=0;resizeLast=0;collapsible=1;marginBottom=0;" vertex="1" parent="1">
          <mxGeometry x="890" y="1020" width="140" height="52" as="geometry" />
        </mxCell>
        <mxCell id="IHvJuYF5Bxmepv5bioum-77" style="edgeStyle=none;rounded=0;orthogonalLoop=1;jettySize=auto;html=1;exitX=0.5;exitY=0;exitDx=0;exitDy=0;entryX=0.5;entryY=1;entryDx=0;entryDy=0;endArrow=block;endFill=0;" edge="1" parent="1" source="IHvJuYF5Bxmepv5bioum-71" target="IHvJuYF5Bxmepv5bioum-63">
          <mxGeometry relative="1" as="geometry" />
        </mxCell>
        <mxCell id="IHvJuYF5Bxmepv5bioum-78" value="{Optional}" style="edgeLabel;html=1;align=center;verticalAlign=middle;resizable=0;points=[];" vertex="1" connectable="0" parent="IHvJuYF5Bxmepv5bioum-77">
          <mxGeometry x="-0.1345" y="-1" relative="1" as="geometry">
            <mxPoint as="offset" />
          </mxGeometry>
        </mxCell>
        <mxCell id="IHvJuYF5Bxmepv5bioum-106" style="edgeStyle=orthogonalEdgeStyle;rounded=0;orthogonalLoop=1;jettySize=auto;html=1;exitX=1;exitY=0.5;exitDx=0;exitDy=0;endArrow=none;endFill=0;entryX=1;entryY=0.5;entryDx=0;entryDy=0;" edge="1" parent="1" source="IHvJuYF5Bxmepv5bioum-71" target="IHvJuYF5Bxmepv5bioum-63">
          <mxGeometry relative="1" as="geometry">
            <mxPoint x="720" y="1090" as="targetPoint" />
            <Array as="points">
              <mxPoint x="870" y="1166" />
              <mxPoint x="870" y="1046" />
            </Array>
          </mxGeometry>
        </mxCell>
        <mxCell id="IHvJuYF5Bxmepv5bioum-107" value="Supervises" style="edgeLabel;html=1;align=center;verticalAlign=middle;resizable=0;points=[];" vertex="1" connectable="0" parent="IHvJuYF5Bxmepv5bioum-106">
          <mxGeometry x="0.2452" y="1" relative="1" as="geometry">
            <mxPoint as="offset" />
          </mxGeometry>
        </mxCell>
        <mxCell id="IHvJuYF5Bxmepv5bioum-71" value="SeniorDeveloper" style="swimlane;fontStyle=0;childLayout=stackLayout;horizontal=1;startSize=26;fillColor=none;horizontalStack=0;resizeParent=1;resizeParentMax=0;resizeLast=0;collapsible=1;marginBottom=0;" vertex="1" parent="1">
          <mxGeometry x="720" y="1140" width="140" height="52" as="geometry" />
        </mxCell>
        <mxCell id="IHvJuYF5Bxmepv5bioum-87" style="edgeStyle=orthogonalEdgeStyle;rounded=0;orthogonalLoop=1;jettySize=auto;html=1;exitX=0.5;exitY=0;exitDx=0;exitDy=0;endArrow=block;endFill=0;entryX=0.512;entryY=0.994;entryDx=0;entryDy=0;entryPerimeter=0;" edge="1" parent="1" source="IHvJuYF5Bxmepv5bioum-81" target="IHvJuYF5Bxmepv5bioum-42">
          <mxGeometry relative="1" as="geometry">
            <mxPoint x="390" y="960" as="targetPoint" />
            <Array as="points">
              <mxPoint x="300" y="920" />
              <mxPoint x="385" y="920" />
            </Array>
          </mxGeometry>
        </mxCell>
        <mxCell id="IHvJuYF5Bxmepv5bioum-90" style="edgeStyle=orthogonalEdgeStyle;rounded=0;orthogonalLoop=1;jettySize=auto;html=1;exitX=0.5;exitY=1;exitDx=0;exitDy=0;entryX=0;entryY=0.5;entryDx=0;entryDy=0;endArrow=none;endFill=0;" edge="1" parent="1" source="IHvJuYF5Bxmepv5bioum-81" target="IHvJuYF5Bxmepv5bioum-59">
          <mxGeometry relative="1" as="geometry" />
        </mxCell>
        <mxCell id="IHvJuYF5Bxmepv5bioum-93" value="Testing" style="edgeLabel;html=1;align=center;verticalAlign=middle;resizable=0;points=[];" vertex="1" connectable="0" parent="IHvJuYF5Bxmepv5bioum-90">
          <mxGeometry x="0.1417" y="-2" relative="1" as="geometry">
            <mxPoint as="offset" />
          </mxGeometry>
        </mxCell>
        <mxCell id="IHvJuYF5Bxmepv5bioum-81" value="TestingTask" style="swimlane;fontStyle=0;childLayout=stackLayout;horizontal=1;startSize=26;fillColor=none;horizontalStack=0;resizeParent=1;resizeParentMax=0;resizeLast=0;collapsible=1;marginBottom=0;" vertex="1" parent="1">
          <mxGeometry x="230" y="930" width="140" height="52" as="geometry" />
        </mxCell>
        <mxCell id="IHvJuYF5Bxmepv5bioum-86" style="edgeStyle=orthogonalEdgeStyle;rounded=0;orthogonalLoop=1;jettySize=auto;html=1;exitX=0.5;exitY=0;exitDx=0;exitDy=0;endArrow=none;endFill=0;" edge="1" parent="1" source="IHvJuYF5Bxmepv5bioum-85">
          <mxGeometry relative="1" as="geometry">
            <mxPoint x="370" y="920" as="targetPoint" />
            <Array as="points">
              <mxPoint x="480" y="920" />
              <mxPoint x="380" y="920" />
            </Array>
          </mxGeometry>
        </mxCell>
        <mxCell id="IHvJuYF5Bxmepv5bioum-88" value="{Optional Dissjoint}" style="edgeLabel;html=1;align=center;verticalAlign=middle;resizable=0;points=[];" vertex="1" connectable="0" parent="IHvJuYF5Bxmepv5bioum-86">
          <mxGeometry x="0.2497" relative="1" as="geometry">
            <mxPoint x="-19" y="-30" as="offset" />
          </mxGeometry>
        </mxCell>
        <mxCell id="IHvJuYF5Bxmepv5bioum-91" style="edgeStyle=orthogonalEdgeStyle;rounded=0;orthogonalLoop=1;jettySize=auto;html=1;exitX=0.5;exitY=1;exitDx=0;exitDy=0;endArrow=none;endFill=0;entryX=0.25;entryY=1;entryDx=0;entryDy=0;" edge="1" parent="1" source="IHvJuYF5Bxmepv5bioum-85" target="IHvJuYF5Bxmepv5bioum-63">
          <mxGeometry relative="1" as="geometry">
            <mxPoint x="480" y="1130" as="targetPoint" />
            <Array as="points">
              <mxPoint x="480" y="1110" />
              <mxPoint x="755" y="1110" />
            </Array>
          </mxGeometry>
        </mxCell>
        <mxCell id="IHvJuYF5Bxmepv5bioum-92" value="Developing" style="edgeLabel;html=1;align=center;verticalAlign=middle;resizable=0;points=[];" vertex="1" connectable="0" parent="IHvJuYF5Bxmepv5bioum-91">
          <mxGeometry x="-0.0718" relative="1" as="geometry">
            <mxPoint as="offset" />
          </mxGeometry>
        </mxCell>
        <mxCell id="IHvJuYF5Bxmepv5bioum-85" value="DevelopmentTask" style="swimlane;fontStyle=0;childLayout=stackLayout;horizontal=1;startSize=26;fillColor=none;horizontalStack=0;resizeParent=1;resizeParentMax=0;resizeLast=0;collapsible=1;marginBottom=0;" vertex="1" parent="1">
          <mxGeometry x="410" y="930" width="140" height="52" as="geometry" />
        </mxCell>
        <mxCell id="IHvJuYF5Bxmepv5bioum-97" value="0..1" style="text;html=1;align=center;verticalAlign=middle;resizable=0;points=[];autosize=1;strokeColor=none;fillColor=none;" vertex="1" parent="1">
          <mxGeometry x="960" y="1070" width="40" height="30" as="geometry" />
        </mxCell>
        <mxCell id="IHvJuYF5Bxmepv5bioum-98" value="0..*" style="text;html=1;align=center;verticalAlign=middle;resizable=0;points=[];autosize=1;strokeColor=none;fillColor=none;" vertex="1" parent="1">
          <mxGeometry x="280" y="845" width="40" height="30" as="geometry" />
        </mxCell>
        <mxCell id="IHvJuYF5Bxmepv5bioum-99" value="0..*" style="text;html=1;align=center;verticalAlign=middle;resizable=0;points=[];autosize=1;strokeColor=none;fillColor=none;" vertex="1" parent="1">
          <mxGeometry x="300" y="985" width="40" height="30" as="geometry" />
        </mxCell>
        <mxCell id="IHvJuYF5Bxmepv5bioum-100" value="0..*" style="text;html=1;align=center;verticalAlign=middle;resizable=0;points=[];autosize=1;strokeColor=none;fillColor=none;" vertex="1" parent="1">
          <mxGeometry x="470" y="975" width="40" height="30" as="geometry" />
        </mxCell>
        <mxCell id="IHvJuYF5Bxmepv5bioum-101" value="1.." style="text;html=1;align=center;verticalAlign=middle;resizable=0;points=[];autosize=1;strokeColor=none;fillColor=none;" vertex="1" parent="1">
          <mxGeometry x="540" y="1025" width="40" height="30" as="geometry" />
        </mxCell>
        <mxCell id="IHvJuYF5Bxmepv5bioum-104" value="1..3" style="text;html=1;align=center;verticalAlign=middle;resizable=0;points=[];autosize=1;strokeColor=none;fillColor=none;" vertex="1" parent="1">
          <mxGeometry x="-20" y="735" width="40" height="30" as="geometry" />
        </mxCell>
        <mxCell id="IHvJuYF5Bxmepv5bioum-105" value="1..1" style="text;html=1;align=center;verticalAlign=middle;resizable=0;points=[];autosize=1;strokeColor=none;fillColor=none;" vertex="1" parent="1">
          <mxGeometry x="990" y="995" width="40" height="30" as="geometry" />
        </mxCell>
        <mxCell id="IHvJuYF5Bxmepv5bioum-108" value="0..*" style="text;html=1;align=center;verticalAlign=middle;resizable=0;points=[];autosize=1;strokeColor=none;fillColor=none;" vertex="1" parent="1">
          <mxGeometry x="850" y="1020" width="40" height="30" as="geometry" />
        </mxCell>
        <mxCell id="IHvJuYF5Bxmepv5bioum-109" value="0..1" style="text;html=1;align=center;verticalAlign=middle;resizable=0;points=[];autosize=1;strokeColor=none;fillColor=none;" vertex="1" parent="1">
          <mxGeometry x="859.17" y="1162" width="40" height="30" as="geometry" />
        </mxCell>
        <mxCell id="IHvJuYF5Bxmepv5bioum-111" value="Company" style="swimlane;fontStyle=0;childLayout=stackLayout;horizontal=1;startSize=26;fillColor=none;horizontalStack=0;resizeParent=1;resizeParentMax=0;resizeLast=0;collapsible=1;marginBottom=0;" vertex="1" parent="1">
          <mxGeometry x="-310" y="760" width="140" height="130" as="geometry" />
        </mxCell>
        <mxCell id="IHvJuYF5Bxmepv5bioum-112" value="id" style="text;strokeColor=none;fillColor=none;align=left;verticalAlign=top;spacingLeft=4;spacingRight=4;overflow=hidden;rotatable=0;points=[[0,0.5],[1,0.5]];portConstraint=eastwest;" vertex="1" parent="IHvJuYF5Bxmepv5bioum-111">
          <mxGeometry y="26" width="140" height="26" as="geometry" />
        </mxCell>
        <mxCell id="IHvJuYF5Bxmepv5bioum-113" value="name" style="text;strokeColor=none;fillColor=none;align=left;verticalAlign=top;spacingLeft=4;spacingRight=4;overflow=hidden;rotatable=0;points=[[0,0.5],[1,0.5]];portConstraint=eastwest;" vertex="1" parent="IHvJuYF5Bxmepv5bioum-111">
          <mxGeometry y="52" width="140" height="26" as="geometry" />
        </mxCell>
        <mxCell id="IHvJuYF5Bxmepv5bioum-114" value="address" style="text;strokeColor=none;fillColor=none;align=left;verticalAlign=top;spacingLeft=4;spacingRight=4;overflow=hidden;rotatable=0;points=[[0,0.5],[1,0.5]];portConstraint=eastwest;" vertex="1" parent="IHvJuYF5Bxmepv5bioum-111">
          <mxGeometry y="78" width="140" height="26" as="geometry" />
        </mxCell>
        <mxCell id="IHvJuYF5Bxmepv5bioum-115" value="url" style="text;strokeColor=none;fillColor=none;align=left;verticalAlign=top;spacingLeft=4;spacingRight=4;overflow=hidden;rotatable=0;points=[[0,0.5],[1,0.5]];portConstraint=eastwest;" vertex="1" parent="IHvJuYF5Bxmepv5bioum-111">
          <mxGeometry y="104" width="140" height="26" as="geometry" />
        </mxCell>
        <mxCell id="IHvJuYF5Bxmepv5bioum-122" style="edgeStyle=orthogonalEdgeStyle;rounded=0;orthogonalLoop=1;jettySize=auto;html=1;exitX=0.5;exitY=0;exitDx=0;exitDy=0;endArrow=none;endFill=0;entryX=0.511;entryY=1.009;entryDx=0;entryDy=0;entryPerimeter=0;" edge="1" parent="1" source="IHvJuYF5Bxmepv5bioum-117" target="IHvJuYF5Bxmepv5bioum-115">
          <mxGeometry relative="1" as="geometry">
            <mxPoint x="-240.19047619047637" y="900" as="targetPoint" />
            <Array as="points">
              <mxPoint x="-240" y="890" />
            </Array>
          </mxGeometry>
        </mxCell>
        <mxCell id="IHvJuYF5Bxmepv5bioum-123" value="Employees" style="edgeLabel;html=1;align=center;verticalAlign=middle;resizable=0;points=[];" vertex="1" connectable="0" parent="IHvJuYF5Bxmepv5bioum-122">
          <mxGeometry x="-0.0967" relative="1" as="geometry">
            <mxPoint as="offset" />
          </mxGeometry>
        </mxCell>
        <mxCell id="IHvJuYF5Bxmepv5bioum-117" value="ContactPerson" style="swimlane;fontStyle=0;childLayout=stackLayout;horizontal=1;startSize=26;fillColor=none;horizontalStack=0;resizeParent=1;resizeParentMax=0;resizeLast=0;collapsible=1;marginBottom=0;" vertex="1" parent="1">
          <mxGeometry x="-310" y="960" width="140" height="130" as="geometry" />
        </mxCell>
        <mxCell id="IHvJuYF5Bxmepv5bioum-121" value="id" style="text;strokeColor=none;fillColor=none;align=left;verticalAlign=top;spacingLeft=4;spacingRight=4;overflow=hidden;rotatable=0;points=[[0,0.5],[1,0.5]];portConstraint=eastwest;" vertex="1" parent="IHvJuYF5Bxmepv5bioum-117">
          <mxGeometry y="26" width="140" height="26" as="geometry" />
        </mxCell>
        <mxCell id="IHvJuYF5Bxmepv5bioum-118" value="name" style="text;strokeColor=none;fillColor=none;align=left;verticalAlign=top;spacingLeft=4;spacingRight=4;overflow=hidden;rotatable=0;points=[[0,0.5],[1,0.5]];portConstraint=eastwest;" vertex="1" parent="IHvJuYF5Bxmepv5bioum-117">
          <mxGeometry y="52" width="140" height="26" as="geometry" />
        </mxCell>
        <mxCell id="IHvJuYF5Bxmepv5bioum-119" value="email" style="text;strokeColor=none;fillColor=none;align=left;verticalAlign=top;spacingLeft=4;spacingRight=4;overflow=hidden;rotatable=0;points=[[0,0.5],[1,0.5]];portConstraint=eastwest;" vertex="1" parent="IHvJuYF5Bxmepv5bioum-117">
          <mxGeometry y="78" width="140" height="26" as="geometry" />
        </mxCell>
        <mxCell id="IHvJuYF5Bxmepv5bioum-120" value="phone" style="text;strokeColor=none;fillColor=none;align=left;verticalAlign=top;spacingLeft=4;spacingRight=4;overflow=hidden;rotatable=0;points=[[0,0.5],[1,0.5]];portConstraint=eastwest;" vertex="1" parent="IHvJuYF5Bxmepv5bioum-117">
          <mxGeometry y="104" width="140" height="26" as="geometry" />
        </mxCell>
        <mxCell id="IHvJuYF5Bxmepv5bioum-129" style="edgeStyle=orthogonalEdgeStyle;rounded=0;orthogonalLoop=1;jettySize=auto;html=1;exitX=0.5;exitY=0;exitDx=0;exitDy=0;entryX=0.504;entryY=0.979;entryDx=0;entryDy=0;entryPerimeter=0;endArrow=none;endFill=0;" edge="1" parent="1" source="IHvJuYF5Bxmepv5bioum-124" target="IHvJuYF5Bxmepv5bioum-38">
          <mxGeometry relative="1" as="geometry">
            <Array as="points">
              <mxPoint x="40" y="960" />
              <mxPoint x="40" y="912" />
              <mxPoint x="41" y="912" />
            </Array>
          </mxGeometry>
        </mxCell>
        <mxCell id="IHvJuYF5Bxmepv5bioum-124" value="Meeting" style="swimlane;fontStyle=0;childLayout=stackLayout;horizontal=1;startSize=26;fillColor=none;horizontalStack=0;resizeParent=1;resizeParentMax=0;resizeLast=0;collapsible=1;marginBottom=0;" vertex="1" parent="1">
          <mxGeometry x="-20" y="960" width="140" height="104" as="geometry" />
        </mxCell>
        <mxCell id="IHvJuYF5Bxmepv5bioum-125" value="id" style="text;strokeColor=none;fillColor=none;align=left;verticalAlign=top;spacingLeft=4;spacingRight=4;overflow=hidden;rotatable=0;points=[[0,0.5],[1,0.5]];portConstraint=eastwest;" vertex="1" parent="IHvJuYF5Bxmepv5bioum-124">
          <mxGeometry y="26" width="140" height="26" as="geometry" />
        </mxCell>
        <mxCell id="IHvJuYF5Bxmepv5bioum-126" value="date" style="text;strokeColor=none;fillColor=none;align=left;verticalAlign=top;spacingLeft=4;spacingRight=4;overflow=hidden;rotatable=0;points=[[0,0.5],[1,0.5]];portConstraint=eastwest;" vertex="1" parent="IHvJuYF5Bxmepv5bioum-124">
          <mxGeometry y="52" width="140" height="26" as="geometry" />
        </mxCell>
        <mxCell id="IHvJuYF5Bxmepv5bioum-127" value="note" style="text;strokeColor=none;fillColor=none;align=left;verticalAlign=top;spacingLeft=4;spacingRight=4;overflow=hidden;rotatable=0;points=[[0,0.5],[1,0.5]];portConstraint=eastwest;" vertex="1" parent="IHvJuYF5Bxmepv5bioum-124">
          <mxGeometry y="78" width="140" height="26" as="geometry" />
        </mxCell>
        <mxCell id="IHvJuYF5Bxmepv5bioum-128" style="edgeStyle=orthogonalEdgeStyle;rounded=0;orthogonalLoop=1;jettySize=auto;html=1;exitX=1;exitY=0.5;exitDx=0;exitDy=0;entryX=0;entryY=0.5;entryDx=0;entryDy=0;endArrow=none;endFill=0;" edge="1" parent="1" source="IHvJuYF5Bxmepv5bioum-118" target="IHvJuYF5Bxmepv5bioum-126">
          <mxGeometry relative="1" as="geometry" />
        </mxCell>
        <mxCell id="IHvJuYF5Bxmepv5bioum-131" style="edgeStyle=orthogonalEdgeStyle;rounded=0;orthogonalLoop=1;jettySize=auto;html=1;exitX=0;exitY=0.5;exitDx=0;exitDy=0;entryX=1;entryY=0.5;entryDx=0;entryDy=0;endArrow=none;endFill=0;startArrow=none;" edge="1" parent="1" source="IHvJuYF5Bxmepv5bioum-132" target="IHvJuYF5Bxmepv5bioum-113">
          <mxGeometry relative="1" as="geometry" />
        </mxCell>
        <mxCell id="IHvJuYF5Bxmepv5bioum-134" value="0..*" style="text;html=1;align=center;verticalAlign=middle;resizable=0;points=[];autosize=1;strokeColor=none;fillColor=none;" vertex="1" parent="1">
          <mxGeometry x="40" y="935" width="40" height="30" as="geometry" />
        </mxCell>
        <mxCell id="IHvJuYF5Bxmepv5bioum-135" value="1..1" style="text;html=1;align=center;verticalAlign=middle;resizable=0;points=[];autosize=1;strokeColor=none;fillColor=none;" vertex="1" parent="1">
          <mxGeometry x="30" y="860" width="40" height="30" as="geometry" />
        </mxCell>
        <mxCell id="IHvJuYF5Bxmepv5bioum-136" value="0..*" style="text;html=1;align=center;verticalAlign=middle;resizable=0;points=[];autosize=1;strokeColor=none;fillColor=none;" vertex="1" parent="1">
          <mxGeometry x="30" y="1065" width="40" height="30" as="geometry" />
        </mxCell>
        <mxCell id="IHvJuYF5Bxmepv5bioum-137" value="0..1" style="text;html=1;align=center;verticalAlign=middle;resizable=0;points=[];autosize=1;strokeColor=none;fillColor=none;" vertex="1" parent="1">
          <mxGeometry x="1020" y="1070" width="40" height="30" as="geometry" />
        </mxCell>
        <mxCell id="IHvJuYF5Bxmepv5bioum-139" value="1..*" style="text;html=1;align=center;verticalAlign=middle;resizable=0;points=[];autosize=1;strokeColor=none;fillColor=none;" vertex="1" parent="1">
          <mxGeometry x="-60" y="825" width="40" height="30" as="geometry" />
        </mxCell>
        <mxCell id="IHvJuYF5Bxmepv5bioum-140" value="1..1" style="text;html=1;align=center;verticalAlign=middle;resizable=0;points=[];autosize=1;strokeColor=none;fillColor=none;" vertex="1" parent="1">
          <mxGeometry x="-180" y="795" width="40" height="30" as="geometry" />
        </mxCell>
        <mxCell id="IHvJuYF5Bxmepv5bioum-132" value="Orders" style="text;html=1;align=center;verticalAlign=middle;resizable=0;points=[];autosize=1;strokeColor=none;fillColor=none;" vertex="1" parent="1">
          <mxGeometry x="-131" y="810" width="60" height="30" as="geometry" />
        </mxCell>
        <mxCell id="IHvJuYF5Bxmepv5bioum-141" value="" style="edgeStyle=orthogonalEdgeStyle;rounded=0;orthogonalLoop=1;jettySize=auto;html=1;exitX=0;exitY=0.5;exitDx=0;exitDy=0;entryX=1;entryY=0.5;entryDx=0;entryDy=0;endArrow=none;endFill=0;" edge="1" parent="1" source="IHvJuYF5Bxmepv5bioum-37" target="IHvJuYF5Bxmepv5bioum-132">
          <mxGeometry relative="1" as="geometry">
            <mxPoint x="-30" y="825" as="sourcePoint" />
            <mxPoint x="-170" y="825" as="targetPoint" />
          </mxGeometry>
        </mxCell>
        <mxCell id="IHvJuYF5Bxmepv5bioum-142" value="Participate" style="text;html=1;align=center;verticalAlign=middle;resizable=0;points=[];autosize=1;strokeColor=none;fillColor=none;" vertex="1" parent="1">
          <mxGeometry x="-131" y="1003" width="80" height="30" as="geometry" />
        </mxCell>
      </root>
    </mxGraphModel>
  </diagram>
</mxfile>
